<svg xmlns="http://www.w3.org/2000/svg" viewBox="0 0 512 512">
  <path d="M439.463 61.867a14.849 14.849 0 00-14.933 0A118.954 118.954 0 01366.077 76.8a111.443 111.443 0 01-80.213-31.573 128.68 128.68 0 00-92.757-36.693 133.632 133.632 0 00-77.909 24.235V25.6c0-14.138-11.461-25.6-25.6-25.6-14.139 0-25.6 11.461-25.6 25.6v460.8c0 14.138 11.461 25.6 25.6 25.6 14.138 0 25.6-11.461 25.6-25.6V264.533a14.93 14.93 0 007.765-3.072 115.713 115.713 0 0170.144-22.528 111.616 111.616 0 0180.384 31.573 128.6 128.6 0 0092.587 36.693 133.374 133.374 0 0074.581-21.76 17.068 17.068 0 007.339-14.507V76.8a17.07 17.07 0 00-8.535-14.933z"/>
</svg>