<svg xmlns="http://www.w3.org/2000/svg" width="35.333" height="35.332">
  <path d="M30.278 30.036l-2.688-5.313a12.131 12.131 0 002.102-5.144l5.64-2.084-5.658-1.857a12.08 12.08 0 00-2.153-5.119l2.517-5.465-5.313 2.688a12.128 12.128 0 00-5.146-2.103L17.495 0l-1.856 5.654a12.14 12.14 0 00-5.122 2.156L5.054 5.293l2.688 5.315a12.105 12.105 0 00-2.101 5.144L0 17.836l5.658 1.855a12.085 12.085 0 002.154 5.119l-2.516 5.465 5.315-2.688a12.127 12.127 0 005.144 2.104l2.083 5.641 1.857-5.658a12.107 12.107 0 005.121-2.154l5.462 2.516zM9.474 17.667c0-4.518 3.675-8.193 8.191-8.193 4.518 0 8.189 3.676 8.189 8.193 0 4.517-3.674 8.19-8.189 8.19-4.517 0-8.191-3.671-8.191-8.19z"/>
</svg>